:version 1.10
:name ASF
:units
  mass 1
  length 1
  angle deg
:documentation
  ASF file generated by Kaydara
:root
  axis xyz
  order  tx ty tz rx ry rz
  position 0 0 0
  orientation 0 0 0
:bonedata
  begin
    id 1
    name RightUpLegDummy
    direction -0.718183 -0.695806 0.00816078
    length 4.904
    axis 0 0 0 xyz
  end
  begin
    id 2
    name RightUpLeg
    direction 3.53989e-006 -0.995788 0.0916897
    length 17.4976
    axis -3.49089 -0.000906621 0.000287158 xyz
    dof rx ry rz
  end
  begin
    id 3
    name RightLeg
    direction 0.00371093 -0.995096 -0.0988418
    length 16.5821
    axis 3.68512 0.0193738 -0.131023 xyz
    dof rx ry rz
  end
  begin
    id 4
    name RightFoot
    direction 0.000791514 -0.46099 0.887405
    length 3.77069
    axis 4.84075e-005 -0.120479 -0.188788 xyz
    dof rx ry rz
  end
  begin
    id 5
    name RightToes
    direction 0.00124746 -0.014064 0.9999
    length 3.85082
    axis 0.00048216 0.542163 -0.142577 xyz
    dof rx ry rz
  end
  begin
    id 6
    name SpineDummy
    direction 8.36599e-015 1 5.97571e-016
    length 4.6813
    axis 0 0 0 xyz
  end
  begin
    id 7
    name Spine
    direction -4.63632e-008 0.999988 0.00495137
    length 10.1015
    axis -0.00138897 0.000121419 3.25764e-006 xyz
    dof rx ry rz
  end
  begin
    id 8
    name Spine1
    direction 0 0 0
    length 0
    axis -0.00138896 0.000121452 2.39764e-006 xyz
    dof rx ry rz
  end
  begin
    id 9
    name HEadDummy
    direction -3.91456e-008 0.999999 0.00127422
    length 3.43865
    axis -0.00138896 0.000121452 2.39764e-006 xyz
  end
  begin
    id 10
    name HEad
    direction -0.0222688 0.980941 0.193023
    length 5.12695
    axis -0.00138895 0.000121452 2.39764e-006 xyz
    dof rx ry rz
  end
  begin
    id 11
    name LeftShoulder1Dummy
    direction 0.998891 -0.0402508 -0.0244456
    length 3.5433
    axis -0.00138896 0.000121452 2.39764e-006 xyz
  end
  begin
    id 12
    name LeftShoulder1
    direction 0.99951 -0.000327743 0.0313091
    length 4.05031
    axis -0.00138896 0.000121452 2.39764e-006 xyz
    dof rx ry rz
  end
  begin
    id 13
    name LeftArm
    direction 0.998561 -0.00100054 -0.0536182
    length 10.3537
    axis -23.1894 0.134784 0.96751 xyz
    dof rx ry rz
  end
  begin
    id 14
    name LeftForeArm
    direction 0.998903 0.00866434 0.046012
    length 8.70632
    axis -9.91835 -0.06569 -0.177792 xyz
    dof rx ry rz
  end
  begin
    id 15
    name LeftHand
    direction 0.992938 -0.0411636 0.11126
    length 5.32135
    axis -0.00960227 -0.00340091 0.185174 xyz
    dof rx ry rz
  end
  begin
    id 16
    name RightShoulderDummy
    direction -0.998891 -0.0402509 -0.0244414
    length 3.5433
    axis -0.00138896 0.000121452 2.39764e-006 xyz
  end
  begin
    id 17
    name RightShoulder
    direction -0.99951 -0.000327827 0.0313133
    length 4.05031
    axis 0.215806 0.000203644 -0.00680151 xyz
    dof rx ry rz
  end
  begin
    id 18
    name RightArm
    direction -0.998573 -0.000999583 -0.053403
    length 10.3947
    axis -23.2009 -0.134239 -0.9641 xyz
    dof rx ry rz
  end
  begin
    id 19
    name RightForeArm
    direction -0.998898 0.00868026 0.0461306
    length 8.68355
    axis -9.92322 0.0658061 0.178869 xyz
    dof rx ry rz
  end
  begin
    id 20
    name RightHand
    direction -0.992843 -0.0414603 0.112003
    length 5.28593
    axis -0.00960634 0.00330671 -0.185226 xyz
    dof rx ry rz
  end
  begin
    id 21
    name LeftUpLegDummy
    direction 0.718183 -0.695806 0.00816078
    length 4.904
    axis 0 0 0 xyz
  end
  begin
    id 22
    name LeftUpLeg
    direction -6.8115e-006 -0.995793 0.0916336
    length 17.4976
    axis -3.48766 0.00143441 -0.000523914 xyz
    dof rx ry rz
  end
  begin
    id 23
    name LeftLeg
    direction -0.00601357 -0.995091 -0.0987824
    length 16.5821
    axis 3.68177 -0.00654038 -0.00028478 xyz
    dof rx ry rz
  end
  begin
    id 24
    name LeftFoot
    direction -0.00417578 -0.460984 0.887399
    length 3.77069
    axis 1.87232e-006 4.66002e-005 -8.1837e-006 xyz
    dof rx ry rz
  end
  begin
    id 25
    name LeftToes
    direction 0.00818058 -0.00485161 0.999955
    length 3.85048
    axis 1.06246e-005 4.65855e-005 -8.18502e-006 xyz
    dof rx ry rz
  end
:hierarchy
  begin
    root RightUpLegDummy SpineDummy LeftUpLegDummy
    RightUpLegDummy RightUpLeg
    RightUpLeg RightLeg
    RightLeg RightFoot
    RightFoot RightToes
    SpineDummy Spine
    Spine Spine1
    Spine1 HEadDummy LeftShoulder1Dummy RightShoulderDummy
    HEadDummy HEad
    LeftShoulder1Dummy LeftShoulder1
    LeftShoulder1 LeftArm
    LeftArm LeftForeArm
    LeftForeArm LeftHand
    RightShoulderDummy RightShoulder
    RightShoulder RightArm
    RightArm RightForeArm
    RightForeArm RightHand
    LeftUpLegDummy LeftUpLeg
    LeftUpLeg LeftLeg
    LeftLeg LeftFoot
    LeftFoot LeftToes
  end

:SAMPLES-PER-SECOND 30
:FULLY-SPECIFIED
:DEGREES
1
root  -4.67609 40.2009 17.9041 179.404 15.7811 175.918
RightUpLeg  1.70857 -6.94943 -6.5055
RightLeg  6.93141 -6.65429 -2.23459
RightFoot  -6.89593 -0.309502 6.63048
RightToes  -1.74624e-010 0 -3.6325e-017
Spine  -11.0444 -0.799265 -9.32122
Spine1  23.0057 -1.36035 3.94329
HEad  1.54243 9.90462 0.242022
LeftShoulder1  2.34155 -5.25959 -20.29
LeftArm  17.1581 14.7473 -53.1964
LeftForeArm  36.0468 -77.3726 -101.808
LeftHand  0.10905 5.99853 21.8725
RightShoulder  1.30768 1.77991 18.4298
RightArm  1.9733 -8.90803 58.7068
RightForeArm  8.13617 19.4795 6.80855
RightHand  -0.396685 2.3194 -6.16743
LeftUpLeg  -0.770996 -1.22181 -3.83348
LeftLeg  0.923917 12.4214 -0.934181
LeftFoot  -1.49938 -0.136607 1.69816
LeftToes  -5.82109e-011 1.10366e-010 -8.03124e-011
2
root  -4.67609 40.2009 17.9041 179.391 15.8783 175.922
RightUpLeg  1.70849 -6.93471 -6.50056
RightLeg  6.92962 -6.57312 -2.23901
RightFoot  -6.88898 -0.310806 6.65077
RightToes  -1.74624e-010 0 -3.6325e-017
Spine  -11.1125 -0.78639 -9.32095
Spine1  23.0541 -1.33474 3.92344
HEad  1.55909 9.90258 0.239157
LeftShoulder1  2.33938 -5.26229 -20.2546
LeftArm  17.1693 14.7663 -53.2224
LeftForeArm  35.9456 -77.3776 -101.616
LeftHand  0.0964166 5.92803 21.9853
RightShoulder  1.30783 1.76154 18.5568
RightArm  1.97214 -8.84628 58.6056
RightForeArm  7.48084 19.5069 6.81746
RightHand  -0.441206 2.40924 -6.76535
LeftUpLeg  -0.726325 -1.19467 -3.81557
LeftLeg  0.883788 12.4777 -0.957141
LeftFoot  -1.50621 -0.135567 1.68199
LeftToes  -5.82109e-011 1.10366e-010 -8.03124e-011
3
root  -4.67687 40.2009 17.9042 179.371 16.0175 175.937
RightUpLeg  1.70834 -6.89051 -6.47029
RightLeg  6.91515 -6.48267 -2.26575
RightFoot  -6.8706 -0.311378 6.65967
RightToes  -1.74624e-010 0 -3.6325e-017
Spine  -11.2464 -0.791418 -9.34261
Spine1  23.1811 -1.33193 3.9219
HEad  1.49116 9.88594 0.212565
LeftShoulder1  2.32757 -5.21951 -20.2497
LeftArm  17.2626 14.7266 -53.2088
LeftForeArm  35.7398 -77.3856 -101.271
LeftHand  0.0737785 5.80544 22.1011
RightShoulder  1.30799 1.746 18.6847
RightArm  2.01266 -8.71186 58.5395
RightForeArm  6.6738 19.6193 6.76277
RightHand  -0.492162 2.44752 -7.49085
LeftUpLeg  -0.676198 -1.15344 -3.78507
LeftLeg  0.850571 12.5544 -0.981428
LeftFoot  -1.51751 -0.134876 1.67123
LeftToes  -5.82109e-011 1.10366e-010 -8.03124e-011
4
root  -4.68136 40.2009 17.9064 179.368 16.0887 175.963
RightUpLeg  1.70563 -6.83974 -6.42433
RightLeg  6.88888 -6.46855 -2.2996
RightFoot  -6.84549 -0.310587 6.64736
RightToes  -1.74624e-010 0 -3.6325e-017
Spine  -11.3534 -0.830857 -9.3746
Spine1  23.2927 -1.38079 3.95272
HEad  1.33238 9.8345 0.176435
LeftShoulder1  2.31592 -5.16298 -20.2919
LeftArm  17.3992 14.6595 -53.149
LeftForeArm  35.6299 -77.3857 -101.139
LeftHand  0.0675699 5.77467 22.035
RightShoulder  1.30798 1.73925 18.6784
RightArm  2.26076 -8.55217 58.5976
RightForeArm  6.58258 19.7784 6.64094
RightHand  -0.517146 2.50293 -7.80813
LeftUpLeg  -0.680983 -1.1332 -3.7607
LeftLeg  0.876212 12.5915 -0.975523
LeftFoot  -1.53182 -0.134769 1.66958
LeftToes  -5.82109e-011 1.10366e-010 -8.03124e-011
5
root  -4.69074 40.2009 17.9128 179.379 16.1165 175.989
RightUpLeg  1.69153 -6.80515 -6.39011
RightLeg  6.86546 -6.47854 -2.31928
RightFoot  -6.81886 -0.310808 6.6508
RightToes  -1.74624e-010 0 -3.6325e-017
Spine  -11.3964 -0.859897 -9.35264
Spine1  23.3257 -1.41082 3.94541
HEad  1.18869 9.74659 0.177654
LeftShoulder1  2.31618 -5.16362 -20.293
LeftArm  17.4974 14.6453 -53.1246
LeftForeArm  35.7505 -77.377 -101.374
LeftHand  0.0848831 5.87233 21.8079
RightShoulder  1.30791 1.72835 18.6157
RightArm  2.83403 -8.42223 58.6715
RightForeArm  6.90662 19.9688 6.48637
RightHand  -0.542595 2.80419 -7.90087
LeftUpLeg  -0.724662 -1.13169 -3.74728
LeftLeg  0.930191 12.618 -0.955131
LeftFoot  -1.54941 -0.134755 1.66936
LeftToes  -5.82109e-011 1.10366e-010 -8.03124e-011
6
root  -4.70307 40.2009 17.9186 179.377 16.191 176.002
RightUpLeg  1.67212 -6.78838 -6.38553
RightLeg  6.8525 -6.41963 -2.32596
RightFoot  -6.79335 -0.31323 6.68849
RightToes  -1.74624e-010 0 -3.6325e-017
Spine  -11.3991 -0.829539 -9.22728
Spine1  23.2979 -1.34165 3.82564
HEad  1.13074 9.63182 0.250936
LeftShoulder1  2.32515 -5.22884 -20.1896
LeftArm  17.558 14.6802 -53.1853
LeftForeArm  35.969 -77.3681 -101.68
LeftHand  0.100698 5.96242 21.624
RightShoulder  1.30759 1.70543 18.6543
RightArm  3.63908 -8.35249 58.6277
RightForeArm  6.52909 20.2535 6.30135
RightHand  -0.584094 3.21159 -8.1115
LeftUpLeg  -0.737286 -1.12727 -3.74543
LeftLeg  0.946098 12.6971 -0.953137
LeftFoot  -1.55996 -0.135181 1.67598
LeftToes  -5.82109e-011 1.10366e-010 -8.03124e-011
